<?xml version="1.0" encoding="UTF-8" standalone="no"?>
<svg
   id="Grupo_614"
   data-name="Grupo 614"
   width="483.25241"
   height="120"
   viewBox="0 0 483.2524 120"
   version="1.1"
   sodipodi:docname="logo-siteur.svg"
   inkscape:version="1.1 (c68e22c387, 2021-05-23)"
   xmlns:inkscape="http://www.inkscape.org/namespaces/inkscape"
   xmlns:sodipodi="http://sodipodi.sourceforge.net/DTD/sodipodi-0.dtd"
   xmlns="http://www.w3.org/2000/svg"
   xmlns:svg="http://www.w3.org/2000/svg">
  <sodipodi:namedview
     id="namedview47"
     pagecolor="#ffffff"
     bordercolor="#666666"
     borderopacity="1.0"
     inkscape:pageshadow="2"
     inkscape:pageopacity="0.0"
     inkscape:pagecheckerboard="0"
     showgrid="false"
     fit-margin-top="0"
     fit-margin-left="0"
     fit-margin-right="0"
     fit-margin-bottom="0"
     inkscape:zoom="1.5332861"
     inkscape:cx="188.81017"
     inkscape:cy="124.89515"
     inkscape:window-width="1920"
     inkscape:window-height="1017"
     inkscape:window-x="1912"
     inkscape:window-y="-8"
     inkscape:window-maximized="1"
     inkscape:current-layer="Grupo_614" />
  <defs
     id="defs4">
    <clipPath
       id="clip-path">
      <rect
         id="Rect치ngulo_775"
         data-name="Rect치ngulo 775"
         width="184.897"
         height="40"
         fill="#ababab"
         x="0"
         y="0" />
    </clipPath>
  </defs>
  <rect
     style="fill:#21345c;fill-opacity:1;fill-rule:evenodd;stroke:#21345c;stroke-width:1.06695;stroke-opacity:1"
     id="rect1918"
     width="482.18546"
     height="118.93305"
     x="0.53347498"
     y="0.53347498"
     ry="16.382183" />
  <g
     id="Grupo_613"
     data-name="Grupo 613"
     transform="matrix(2.5054598,0,0,2.5,10,10)"
     clip-path="url(#clip-path)"
     style="fill:#f1e31e;fill-opacity:1">
    <path
       id="Trazado_859"
       data-name="Trazado 859"
       d="m 120.381,34.862 a 13.837,13.837 0 0 1 -7.768,-2.068 7.9,7.9 0 0 1 -3.7,-5.476 q -0.1,-0.834 0.764,-0.834 h 5.007 a 1,1 0 0 1 0.938,0.625 3.427,3.427 0 0 0 1.687,1.877 6.31,6.31 0 0 0 3.076,0.7 4.691,4.691 0 0 0 2.468,-0.556 1.713,1.713 0 0 0 0.9,-1.529 1.888,1.888 0 0 0 -1.025,-1.668 6.81,6.81 0 0 0 -2.59,-0.852 30.2,30.2 0 0 1 -3.354,-0.7 24.552,24.552 0 0 1 -3.354,-1.13 5.715,5.715 0 0 1 -2.59,-2.242 7.109,7.109 0 0 1 -1.025,-3.945 6.73,6.73 0 0 1 2.8,-5.614 11.722,11.722 0 0 1 7.316,-2.138 13.08,13.08 0 0 1 7.069,1.877 7.564,7.564 0 0 1 3.633,5.145 0.586,0.586 0 0 1 -0.122,0.608 0.868,0.868 0 0 1 -0.642,0.226 h -5.039 a 1.156,1.156 0 0 1 -1.008,-0.591 q -0.764,-2.155 -3.545,-2.155 a 4.085,4.085 0 0 0 -2.329,0.608 1.861,1.861 0 0 0 -0.9,1.616 1.994,1.994 0 0 0 1.025,1.738 6.614,6.614 0 0 0 2.573,0.9 34.118,34.118 0 0 1 3.337,0.713 25.537,25.537 0 0 1 3.337,1.112 5.715,5.715 0 0 1 2.573,2.172 6.718,6.718 0 0 1 1.025,3.824 6.665,6.665 0 0 1 -2.886,5.615 12.551,12.551 0 0 1 -7.647,2.138"
       transform="translate(-59.487,-5.087)"
       fill="#ababab"
       style="fill:#f1e31e;fill-opacity:1" />
    <path
       id="Trazado_860"
       data-name="Trazado 860"
       d="m 165.146,35.024 q -0.832,0 -0.833,-0.8 v -3.858 q 0,-0.8 0.833,-0.8 h 3.06 V 16.149 h -3.06 q -0.832,0 -0.833,-0.8 v -3.858 q 0,-0.8 0.833,-0.8 h 12.688 q 0.836,0 0.836,0.8 v 3.859 q 0,0.8 -0.836,0.8 h -3.058 v 13.417 h 3.058 q 0.836,0 0.836,0.8 v 3.858 q 0,0.8 -0.836,0.8 z"
       transform="translate(-89.758,-5.84)"
       fill="#ababab"
       style="fill:#f1e31e;fill-opacity:1" />
    <path
       id="Trazado_861"
       data-name="Trazado 861"
       d="m 210.053,10.691 q 0.832,0 0.833,0.8 v 3.858 q 0,0.8 -0.833,0.8 h -6.987 v 18.075 q 0,0.8 -0.834,0.8 h -4.937 a 0.706,0.706 0 0 1 -0.8,-0.8 V 16.149 h -6.988 q -0.836,0 -0.836,-0.8 v -3.858 q 0,-0.8 0.836,-0.8 z"
       transform="translate(-103.065,-5.84)"
       fill="#ababab"
       style="fill:#f1e31e;fill-opacity:1" />
    <path
       id="Trazado_862"
       data-name="Trazado 862"
       d="m 264.329,15.176 q 0,0.764 -0.8,0.764 H 251.78 v 4.415 h 9.871 q 0.833,0 0.834,0.764 v 3.615 q 0,0.766 -0.834,0.765 h -9.871 v 4.275 h 11.748 c 0.533,0 0.8,0.256 0.8,0.765 v 3.684 a 0.708,0.708 0 0 1 -0.8,0.8 h -17.483 q -0.836,0 -0.836,-0.8 V 11.491 q 0,-0.8 0.836,-0.8 h 17.483 a 0.708,0.708 0 0 1 0.8,0.8 z"
       transform="translate(-133.949,-5.84)"
       fill="#ababab"
       style="fill:#f1e31e;fill-opacity:1" />
    <path
       id="Trazado_863"
       data-name="Trazado 863"
       d="m 306.9,35.65 q -5.561,0 -8.69,-3.042 -3.129,-3.042 -3.128,-8.464 V 11.491 c 0,-0.533 0.276,-0.8 0.833,-0.8 h 4.972 q 0.832,0 0.834,0.8 v 12.827 a 5.637,5.637 0 0 0 1.408,4.032 4.933,4.933 0 0 0 3.77,1.495 5,5 0 0 0 3.79,-1.495 5.606,5.606 0 0 0 1.426,-4.032 V 11.491 a 0.706,0.706 0 0 1 0.8,-0.8 h 5.007 q 0.832,0 0.834,0.8 v 12.653 q 0,5.423 -3.128,8.464 -3.128,3.041 -8.728,3.042"
       transform="translate(-161.195,-5.84)"
       fill="#ababab"
       style="fill:#f1e31e;fill-opacity:1" />
    <path
       id="Trazado_864"
       data-name="Trazado 864"
       d="m 379.518,34.086 a 0.589,0.589 0 0 1 0.122,0.659 c -0.1,0.186 -0.328,0.279 -0.677,0.279 h -5.909 a 1.1,1.1 0 0 1 -0.973,-0.521 L 367,27.76 h -3.683 v 6.465 a 0.708,0.708 0 0 1 -0.8,0.8 h -4.935 q -0.836,0 -0.836,-0.8 V 11.491 q 0,-0.8 0.836,-0.8 h 10.258 a 11.865,11.865 0 0 1 7.612,2.226 7.593,7.593 0 0 1 2.782,6.292 q 0,5.353 -4.554,7.4 z m -16.2,-18.076 v 6.4 h 3.822 a 5.756,5.756 0 0 0 3.285,-0.818 2.7,2.7 0 0 0 1.2,-2.38 2.734,2.734 0 0 0 -1.164,-2.364 5.3,5.3 0 0 0 -3.145,-0.835 z"
       transform="translate(-194.88,-5.84)"
       fill="#ababab"
       style="fill:#f1e31e;fill-opacity:1" />
    <path
       id="Trazado_865"
       data-name="Trazado 865"
       d="m 110.84,81.539 a 2.671,2.671 0 0 1 -1.589,-0.451 1.689,1.689 0 0 1 -0.734,-1.2 c -0.011,-0.079 0.026,-0.12 0.113,-0.12 h 0.721 a 0.116,0.116 0 0 1 0.122,0.105 0.956,0.956 0 0 0 0.471,0.636 1.786,1.786 0 0 0 0.951,0.236 1.374,1.374 0 0 0 0.77,-0.191 0.593,0.593 0 0 0 0.289,-0.515 0.55,0.55 0 0 0 -0.176,-0.426 1.06,1.06 0 0 0 -0.464,-0.233 c -0.19,-0.048 -0.4,-0.09 -0.627,-0.127 -0.227,-0.037 -0.457,-0.086 -0.686,-0.143 a 2.8,2.8 0 0 1 -0.627,-0.236 1.147,1.147 0 0 1 -0.463,-0.459 1.509,1.509 0 0 1 -0.176,-0.76 1.4,1.4 0 0 1 0.557,-1.155 2.3,2.3 0 0 1 1.465,-0.44 2.551,2.551 0 0 1 1.482,0.41 1.606,1.606 0 0 1 0.707,1.094 c 0.015,0.08 -0.02,0.121 -0.107,0.121 h -0.729 a 0.122,0.122 0 0 1 -0.127,-0.1 0.913,0.913 0 0 0 -0.4,-0.553 1.368,1.368 0 0 0 -0.764,-0.2 1.351,1.351 0 0 0 -0.785,0.206 0.641,0.641 0 0 0 -0.3,0.553 0.588,0.588 0 0 0 0.237,0.492 1.3,1.3 0 0 0 0.59,0.245 c 0.235,0.04 0.492,0.09 0.766,0.15 a 7.007,7.007 0 0 1 0.768,0.211 1.2,1.2 0 0 1 0.59,0.44 1.33,1.33 0 0 1 0.237,0.816 1.385,1.385 0 0 1 -0.574,1.154 2.436,2.436 0 0 1 -1.517,0.441"
       transform="translate(-59.278,-41.547)"
       fill="#ababab"
       style="fill:#f1e31e;fill-opacity:1" />
    <path
       id="Trazado_866"
       data-name="Trazado 866"
       d="m 121.091,76.943 a 0.576,0.576 0 0 1 -0.407,-0.153 0.5,0.5 0 0 1 0,-0.745 0.605,0.605 0 0 1 0.807,0 0.492,0.492 0 0 1 0,0.745 0.571,0.571 0 0 1 -0.4,0.153 m -0.346,4.4 a 0.1,0.1 0 0 1 -0.113,-0.113 v -3.383 a 0.1,0.1 0 0 1 0.113,-0.113 h 0.692 a 0.1,0.1 0 0 1 0.111,0.113 v 3.384 a 0.1,0.1 0 0 1 -0.111,0.113 z"
       transform="translate(-65.835,-41.457)"
       fill="#ababab"
       style="fill:#f1e31e;fill-opacity:1" />
    <path
       id="Trazado_867"
       data-name="Trazado 867"
       d="m 126.647,83.538 a 2.176,2.176 0 0 1 -1.236,-0.317 1.228,1.228 0 0 1 -0.553,-0.879 c -0.011,-0.081 0.028,-0.121 0.113,-0.121 l 0.631,0.007 a 0.118,0.118 0 0 1 0.12,0.1 q 0.167,0.505 0.925,0.5 a 1.067,1.067 0 0 0 0.527,-0.113 0.333,0.333 0 0 0 0.2,-0.293 0.338,0.338 0 0 0 -0.248,-0.32 2.4,2.4 0 0 0 -0.6,-0.147 c -0.233,-0.029 -0.468,-0.069 -0.7,-0.12 a 1.181,1.181 0 0 1 -0.6,-0.32 0.9,0.9 0 0 1 -0.248,-0.672 0.972,0.972 0 0 1 0.435,-0.827 1.917,1.917 0 0 1 1.152,-0.317 2,2 0 0 1 1.112,0.294 1.107,1.107 0 0 1 0.527,0.775 c 0.011,0.079 -0.028,0.12 -0.113,0.12 h -0.631 c -0.065,0 -0.107,-0.023 -0.12,-0.068 a 0.6,0.6 0 0 0 -0.283,-0.328 0.967,0.967 0 0 0 -0.492,-0.124 1,1 0 0 0 -0.494,0.106 0.315,0.315 0 0 0 -0.183,0.279 0.348,0.348 0 0 0 0.176,0.308 1.014,1.014 0 0 0 0.435,0.142 q 0.261,0.031 0.568,0.094 a 4.915,4.915 0 0 1 0.568,0.15 0.889,0.889 0 0 1 0.436,0.32 0.947,0.947 0 0 1 0.178,0.594 1.006,1.006 0 0 1 -0.444,0.85 1.938,1.938 0 0 1 -1.167,0.323"
       transform="translate(-68.204,-43.538)"
       fill="#ababab"
       style="fill:#f1e31e;fill-opacity:1" />
    <path
       id="Trazado_868"
       data-name="Trazado 868"
       d="m 135.834,82.334 a 1.44,1.44 0 0 1 -1.058,-0.4 1.415,1.415 0 0 1 -0.4,-1.053 V 79.34 h -0.753 a 0.1,0.1 0 0 1 -0.113,-0.112 v -0.5 a 0.1,0.1 0 0 1 0.113,-0.113 h 0.753 v -1 a 0.1,0.1 0 0 1 0.111,-0.113 h 0.692 a 0.1,0.1 0 0 1 0.113,0.113 v 1 h 1.28 a 0.1,0.1 0 0 1 0.111,0.113 v 0.5 a 0.1,0.1 0 0 1 -0.111,0.112 h -1.28 v 1.512 a 0.685,0.685 0 0 0 0.177,0.493 0.62,0.62 0 0 0 0.47,0.184 2.467,2.467 0 0 0 0.594,-0.068 0.1,0.1 0 0 1 0.135,0.09 l 0.092,0.527 a 0.126,0.126 0 0 1 -0.092,0.135 3.356,3.356 0 0 1 -0.834,0.121"
       transform="translate(-72.932,-42.334)"
       fill="#ababab"
       style="fill:#f1e31e;fill-opacity:1" />
    <path
       id="Trazado_869"
       data-name="Trazado 869"
       d="m 144.248,83.538 a 2.018,2.018 0 0 1 -1.45,-0.526 1.835,1.835 0 0 1 -0.553,-1.391 1.86,1.86 0 0 1 0.54,-1.392 1.927,1.927 0 0 1 1.408,-0.527 1.864,1.864 0 0 1 1.373,0.519 1.846,1.846 0 0 1 0.522,1.369 c 0,0.069 0,0.171 -0.015,0.3 a 0.117,0.117 0 0 1 -0.129,0.1 h -2.774 a 1.085,1.085 0 0 0 0.4,0.594 1.13,1.13 0 0 0 0.7,0.218 0.89,0.89 0 0 0 0.714,-0.262 0.2,0.2 0 0 1 0.144,-0.069 h 0.744 a 0.108,0.108 0 0 1 0.089,0.038 0.07,0.07 0 0 1 0,0.09 1.483,1.483 0 0 1 -0.657,0.685 2.159,2.159 0 0 1 -1.055,0.255 m -1.1,-2.2 h 2.009 a 0.941,0.941 0 0 0 -0.268,-0.651 0.909,0.909 0 0 0 -0.673,-0.251 1.086,1.086 0 0 0 -0.718,0.248 0.986,0.986 0 0 0 -0.35,0.654"
       transform="translate(-77.703,-43.538)"
       fill="#ababab"
       style="fill:#f1e31e;fill-opacity:1" />
    <path
       id="Trazado_870"
       data-name="Trazado 870"
       d="m 157.528,79.7 a 1.584,1.584 0 0 1 1.193,0.47 1.707,1.707 0 0 1 0.455,1.237 v 1.9 a 0.1,0.1 0 0 1 -0.113,0.113 h -0.692 a 0.1,0.1 0 0 1 -0.111,-0.113 v -1.85 a 0.979,0.979 0 0 0 -0.257,-0.7 0.886,0.886 0 0 0 -0.668,-0.267 0.74,0.74 0 0 0 -0.584,0.252 0.973,0.973 0 0 0 -0.222,0.666 v 1.9 a 0.1,0.1 0 0 1 -0.113,0.113 h -0.692 a 0.1,0.1 0 0 1 -0.113,-0.113 v -1.85 a 1.044,1.044 0 0 0 -0.229,-0.7 0.769,0.769 0 0 0 -0.614,-0.267 0.868,0.868 0 0 0 -0.647,0.252 0.911,0.911 0 0 0 -0.248,0.666 v 1.9 a 0.1,0.1 0 0 1 -0.113,0.113 h -0.69 a 0.1,0.1 0 0 1 -0.113,-0.113 v -2.524 c 0,-0.185 -0.107,-0.278 -0.316,-0.278 a 1.843,1.843 0 0 0 -0.211,0.023 c -0.092,0.01 -0.135,-0.02 -0.135,-0.09 v -0.527 a 0.127,0.127 0 0 1 0.089,-0.136 1.312,1.312 0 0 1 0.459,-0.075 0.856,0.856 0 0 1 0.849,0.459 1.751,1.751 0 0 1 1.271,-0.459 1.467,1.467 0 0 1 1.2,0.549 1.728,1.728 0 0 1 1.36,-0.549"
       transform="translate(-83.193,-43.538)"
       fill="#ababab"
       style="fill:#f1e31e;fill-opacity:1" />
    <path
       id="Trazado_871"
       data-name="Trazado 871"
       d="m 174.24,83.312 a 0.123,0.123 0 0 1 -0.089,0.136 1.676,1.676 0 0 1 -0.511,0.09 0.875,0.875 0 0 1 -0.873,-0.467 1.823,1.823 0 0 1 -1.241,0.467 1.984,1.984 0 0 1 -1.433,-0.538 1.979,1.979 0 0 1 0,-2.761 1.985,1.985 0 0 1 1.432,-0.538 1.77,1.77 0 0 1 1.06,0.331 v -0.1 a 0.1,0.1 0 0 1 0.113,-0.113 h 0.692 a 0.1,0.1 0 0 1 0.113,0.113 v 2.527 a 0.279,0.279 0 0 0 0.072,0.2 0.248,0.248 0 0 0 0.191,0.075 1.561,1.561 0 0 0 0.279,-0.029 c 0.079,-0.015 0.124,0.014 0.135,0.09 z m -2.706,-0.526 a 0.978,0.978 0 0 0 0.76,-0.328 1.351,1.351 0 0 0 0,-1.677 0.978,0.978 0 0 0 -0.76,-0.328 1.016,1.016 0 0 0 -0.779,0.328 1.305,1.305 0 0 0 0,1.677 1.016,1.016 0 0 0 0.779,0.328"
       transform="translate(-92.609,-43.538)"
       fill="#ababab"
       style="fill:#f1e31e;fill-opacity:1" />
    <path
       id="Trazado_872"
       data-name="Trazado 872"
       d="m 190.829,81.094 a 0.123,0.123 0 0 1 -0.089,0.136 1.676,1.676 0 0 1 -0.511,0.09 0.875,0.875 0 0 1 -0.873,-0.467 1.823,1.823 0 0 1 -1.241,0.467 1.984,1.984 0 0 1 -1.432,-0.537 1.979,1.979 0 0 1 0,-2.761 1.985,1.985 0 0 1 1.432,-0.538 1.807,1.807 0 0 1 1.054,0.324 v -2.054 a 0.1,0.1 0 0 1 0.113,-0.113 h 0.7 a 0.1,0.1 0 0 1 0.113,0.113 v 4.483 a 0.279,0.279 0 0 0 0.072,0.2 0.249,0.249 0 0 0 0.191,0.075 1.562,1.562 0 0 0 0.279,-0.029 c 0.078,-0.015 0.124,0.014 0.135,0.09 z m -2.706,-0.526 a 0.978,0.978 0 0 0 0.76,-0.328 1.351,1.351 0 0 0 0,-1.677 0.978,0.978 0 0 0 -0.76,-0.328 1.016,1.016 0 0 0 -0.779,0.328 1.305,1.305 0 0 0 0,1.677 1.016,1.016 0 0 0 0.779,0.328"
       transform="translate(-101.671,-41.32)"
       fill="#ababab"
       style="fill:#f1e31e;fill-opacity:1" />
    <path
       id="Trazado_873"
       data-name="Trazado 873"
       d="m 200.074,83.538 a 2.018,2.018 0 0 1 -1.45,-0.526 1.835,1.835 0 0 1 -0.553,-1.391 1.86,1.86 0 0 1 0.54,-1.392 1.927,1.927 0 0 1 1.408,-0.527 1.789,1.789 0 0 1 1.9,1.888 c 0,0.069 0,0.171 -0.015,0.3 a 0.117,0.117 0 0 1 -0.129,0.1 H 199 a 1.085,1.085 0 0 0 0.4,0.594 1.131,1.131 0 0 0 0.7,0.218 0.89,0.89 0 0 0 0.714,-0.262 0.2,0.2 0 0 1 0.144,-0.069 h 0.744 a 0.108,0.108 0 0 1 0.089,0.038 0.07,0.07 0 0 1 0,0.09 1.485,1.485 0 0 1 -0.657,0.685 2.159,2.159 0 0 1 -1.055,0.255 m -1.1,-2.2 h 2.009 a 0.941,0.941 0 0 0 -0.268,-0.651 0.909,0.909 0 0 0 -0.673,-0.251 1.086,1.086 0 0 0 -0.718,0.248 0.986,0.986 0 0 0 -0.35,0.654"
       transform="translate(-108.199,-43.538)"
       fill="#ababab"
       style="fill:#f1e31e;fill-opacity:1" />
    <path
       id="Trazado_874"
       data-name="Trazado 874"
       d="m 217.187,76.306 a 0.1,0.1 0 0 1 0.111,0.112 v 0.609 a 0.1,0.1 0 0 1 -0.111,0.113 h -1.776 v 4.316 a 0.1,0.1 0 0 1 -0.113,0.113 h -0.729 a 0.1,0.1 0 0 1 -0.113,-0.113 v -4.315 h -1.767 a 0.1,0.1 0 0 1 -0.111,-0.113 v -0.609 a 0.1,0.1 0 0 1 0.111,-0.112 z"
       transform="translate(-116.123,-41.683)"
       fill="#ababab"
       style="fill:#f1e31e;fill-opacity:1" />
    <path
       id="Trazado_875"
       data-name="Trazado 875"
       d="m 226.742,79.776 a 0.112,0.112 0 0 1 0.083,0.136 l -0.091,0.564 a 0.1,0.1 0 0 1 -0.135,0.09 2.43,2.43 0 0 0 -0.429,-0.037 1.038,1.038 0 0 0 -1.09,1.09 v 1.692 a 0.1,0.1 0 0 1 -0.113,0.113 h -0.69 a 0.1,0.1 0 0 1 -0.113,-0.113 v -2.527 c 0,-0.185 -0.107,-0.278 -0.315,-0.278 a 1.78,1.78 0 0 0 -0.211,0.023 c -0.091,0.01 -0.135,-0.021 -0.135,-0.09 v -0.527 a 0.127,0.127 0 0 1 0.089,-0.136 1.548,1.548 0 0 1 0.459,-0.075 0.832,0.832 0 0 1 0.879,0.542 1.621,1.621 0 0 1 1.25,-0.542 1.959,1.959 0 0 1 0.564,0.075"
       transform="translate(-122.091,-43.538)"
       fill="#ababab"
       style="fill:#f1e31e;fill-opacity:1" />
    <path
       id="Trazado_876"
       data-name="Trazado 876"
       d="m 234.067,83.538 a 2.018,2.018 0 0 1 -1.45,-0.526 1.835,1.835 0 0 1 -0.553,-1.391 1.86,1.86 0 0 1 0.54,-1.392 1.927,1.927 0 0 1 1.408,-0.527 1.864,1.864 0 0 1 1.373,0.519 1.845,1.845 0 0 1 0.522,1.369 c 0,0.069 0,0.171 -0.015,0.3 a 0.117,0.117 0 0 1 -0.129,0.1 h -2.775 a 1.085,1.085 0 0 0 0.4,0.594 1.131,1.131 0 0 0 0.7,0.218 0.89,0.89 0 0 0 0.714,-0.262 0.2,0.2 0 0 1 0.144,-0.069 h 0.744 a 0.108,0.108 0 0 1 0.089,0.038 0.07,0.07 0 0 1 0,0.09 1.485,1.485 0 0 1 -0.657,0.685 2.159,2.159 0 0 1 -1.055,0.255 m -1.1,-2.2 h 2.009 a 0.941,0.941 0 0 0 -0.268,-0.651 0.909,0.909 0 0 0 -0.673,-0.251 1.086,1.086 0 0 0 -0.718,0.248 0.986,0.986 0 0 0 -0.35,0.654"
       transform="translate(-126.768,-43.538)"
       fill="#ababab"
       style="fill:#f1e31e;fill-opacity:1" />
    <path
       id="Trazado_877"
       data-name="Trazado 877"
       d="m 244.865,79.7 a 1.587,1.587 0 0 1 1.193,0.47 1.707,1.707 0 0 1 0.455,1.237 v 1.9 A 0.1,0.1 0 0 1 246.4,83.42 h -0.692 a 0.1,0.1 0 0 1 -0.113,-0.113 v -1.85 a 0.977,0.977 0 0 0 -0.255,-0.7 0.887,0.887 0 0 0 -0.671,-0.267 0.994,0.994 0 0 0 -0.705,0.252 0.869,0.869 0 0 0 -0.272,0.666 v 1.9 a 0.1,0.1 0 0 1 -0.113,0.113 h -0.69 a 0.1,0.1 0 0 1 -0.113,-0.113 v -2.523 c 0,-0.185 -0.107,-0.278 -0.316,-0.278 a 1.832,1.832 0 0 0 -0.211,0.023 c -0.092,0.01 -0.135,-0.02 -0.135,-0.09 v -0.527 a 0.127,0.127 0 0 1 0.089,-0.136 1.312,1.312 0 0 1 0.459,-0.075 0.87,0.87 0 0 1 0.858,0.475 1.868,1.868 0 0 1 1.345,-0.475"
       transform="translate(-132.258,-43.538)"
       fill="#ababab"
       style="fill:#f1e31e;fill-opacity:1" />
    <path
       id="Trazado_878"
       data-name="Trazado 878"
       d="m 262.948,77.027 a 0.1,0.1 0 0 1 -0.113,0.113 h -2.865 v 1.414 h 2.549 a 0.1,0.1 0 0 1 0.113,0.113 v 0.608 a 0.1,0.1 0 0 1 -0.113,0.113 h -2.549 v 1.346 h 2.865 a 0.1,0.1 0 0 1 0.113,0.113 v 0.608 a 0.1,0.1 0 0 1 -0.113,0.113 h -3.707 a 0.1,0.1 0 0 1 -0.113,-0.113 v -5.037 a 0.1,0.1 0 0 1 0.113,-0.112 h 3.707 a 0.1,0.1 0 0 1 0.113,0.112 z"
       transform="translate(-141.491,-41.683)"
       fill="#ababab"
       style="fill:#f1e31e;fill-opacity:1" />
    <path
       id="Trazado_879"
       data-name="Trazado 879"
       d="m 270.978,81.32 a 1.2,1.2 0 0 1 -0.764,-0.23 0.733,0.733 0 0 1 -0.289,-0.605 v -4.731 a 0.1,0.1 0 0 1 0.113,-0.113 h 0.692 a 0.1,0.1 0 0 1 0.111,0.113 v 4.483 a 0.283,0.283 0 0 0 0.072,0.2 0.253,0.253 0 0 0 0.191,0.075 1.542,1.542 0 0 0 0.279,-0.029 c 0.081,-0.015 0.127,0.014 0.135,0.09 l 0.061,0.518 a 0.115,0.115 0 0 1 -0.089,0.136 1.688,1.688 0 0 1 -0.511,0.09"
       transform="translate(-147.45,-41.32)"
       fill="#ababab"
       style="fill:#f1e31e;fill-opacity:1" />
    <path
       id="Trazado_880"
       data-name="Trazado 880"
       d="M 277.146,81.528 A 2.019,2.019 0 0 1 275.7,81 a 1.835,1.835 0 0 1 -0.553,-1.391 1.86,1.86 0 0 1 0.54,-1.392 1.926,1.926 0 0 1 1.408,-0.526 1.789,1.789 0 0 1 1.9,1.888 c 0,0.07 0,0.171 -0.015,0.3 a 0.117,0.117 0 0 1 -0.128,0.1 h -2.775 a 1.088,1.088 0 0 0 0.4,0.594 1.133,1.133 0 0 0 0.7,0.217 0.889,0.889 0 0 0 0.714,-0.262 0.2,0.2 0 0 1 0.144,-0.069 h 0.744 a 0.108,0.108 0 0 1 0.089,0.038 0.07,0.07 0 0 1 0,0.09 1.481,1.481 0 0 1 -0.657,0.685 2.159,2.159 0 0 1 -1.055,0.256 m -1.1,-2.2 h 2.009 a 0.942,0.942 0 0 0 -0.268,-0.651 0.91,0.91 0 0 0 -0.672,-0.251 1.084,1.084 0 0 0 -0.719,0.248 0.984,0.984 0 0 0 -0.35,0.654 m 0.7,-2.166 a 0.093,0.093 0 0 1 -0.085,-0.041 0.089,0.089 0 0 1 0,-0.095 l 0.5,-0.925 a 0.141,0.141 0 0 1 0.137,-0.083 h 0.766 c 0.1,0 0.124,0.046 0.068,0.136 l -0.647,0.939 a 0.159,0.159 0 0 1 -0.143,0.069 z"
       transform="translate(-150.301,-41.528)"
       fill="#ababab"
       style="fill:#f1e31e;fill-opacity:1" />
    <path
       id="Trazado_881"
       data-name="Trazado 881"
       d="m 287.441,83.538 a 2.011,2.011 0 0 1 -1.452,-0.527 2.034,2.034 0 0 1 0,-2.783 2.251,2.251 0 0 1 2.658,-0.173 1.5,1.5 0 0 1 0.614,0.941 c 0.015,0.08 -0.018,0.121 -0.1,0.121 h -0.714 a 0.12,0.12 0 0 1 -0.122,-0.1 0.723,0.723 0 0 0 -0.323,-0.387 1.059,1.059 0 0 0 -0.564,-0.147 1.04,1.04 0 0 0 -0.788,0.313 1.294,1.294 0 0 0 0,1.647 1.04,1.04 0 0 0 0.788,0.312 1.063,1.063 0 0 0 0.564,-0.147 0.723,0.723 0 0 0 0.323,-0.387 0.12,0.12 0 0 1 0.122,-0.1 h 0.714 c 0.08,0 0.113,0.039 0.1,0.12 a 1.494,1.494 0 0 1 -0.614,0.94 2.019,2.019 0 0 1 -1.206,0.354"
       transform="translate(-155.925,-43.538)"
       fill="#ababab"
       style="fill:#f1e31e;fill-opacity:1" />
    <path
       id="Trazado_882"
       data-name="Trazado 882"
       d="m 297.348,82.334 a 1.44,1.44 0 0 1 -1.058,-0.4 1.415,1.415 0 0 1 -0.4,-1.053 V 79.34 h -0.753 a 0.1,0.1 0 0 1 -0.113,-0.112 v -0.5 a 0.1,0.1 0 0 1 0.113,-0.113 h 0.753 v -1 A 0.1,0.1 0 0 1 296,77.5 h 0.692 a 0.1,0.1 0 0 1 0.113,0.113 v 1 h 1.28 a 0.1,0.1 0 0 1 0.111,0.113 v 0.5 a 0.1,0.1 0 0 1 -0.111,0.112 h -1.28 v 1.512 a 0.685,0.685 0 0 0 0.177,0.493 0.62,0.62 0 0 0 0.47,0.184 2.466,2.466 0 0 0 0.594,-0.068 0.1,0.1 0 0 1 0.135,0.09 l 0.092,0.527 a 0.126,0.126 0 0 1 -0.092,0.135 3.355,3.355 0 0 1 -0.833,0.121"
       transform="translate(-161.161,-42.334)"
       fill="#ababab"
       style="fill:#f1e31e;fill-opacity:1" />
    <path
       id="Trazado_883"
       data-name="Trazado 883"
       d="m 306.756,79.776 a 0.111,0.111 0 0 1 0.083,0.136 l -0.091,0.564 a 0.1,0.1 0 0 1 -0.135,0.09 2.43,2.43 0 0 0 -0.429,-0.037 1.038,1.038 0 0 0 -1.09,1.09 v 1.692 a 0.1,0.1 0 0 1 -0.113,0.113 h -0.69 a 0.1,0.1 0 0 1 -0.113,-0.113 v -2.527 c 0,-0.185 -0.107,-0.278 -0.315,-0.278 a 1.78,1.78 0 0 0 -0.211,0.023 c -0.091,0.01 -0.135,-0.021 -0.135,-0.09 v -0.527 a 0.127,0.127 0 0 1 0.089,-0.136 1.548,1.548 0 0 1 0.459,-0.075 0.832,0.832 0 0 1 0.879,0.542 1.621,1.621 0 0 1 1.25,-0.542 1.959,1.959 0 0 1 0.564,0.075"
       transform="translate(-165.799,-43.538)"
       fill="#ababab"
       style="fill:#f1e31e;fill-opacity:1" />
    <path
       id="Trazado_884"
       data-name="Trazado 884"
       d="m 313.149,76.943 a 0.576,0.576 0 0 1 -0.407,-0.153 0.5,0.5 0 0 1 0,-0.745 0.605,0.605 0 0 1 0.807,0 0.492,0.492 0 0 1 0,0.745 0.571,0.571 0 0 1 -0.4,0.153 m -0.346,4.4 A 0.1,0.1 0 0 1 312.69,81.23 v -3.383 a 0.1,0.1 0 0 1 0.113,-0.113 h 0.692 a 0.1,0.1 0 0 1 0.111,0.113 v 3.384 a 0.1,0.1 0 0 1 -0.111,0.113 z"
       transform="translate(-170.749,-41.457)"
       fill="#ababab"
       style="fill:#f1e31e;fill-opacity:1" />
    <path
       id="Trazado_885"
       data-name="Trazado 885"
       d="m 319.084,83.538 a 2.011,2.011 0 0 1 -1.452,-0.527 2.034,2.034 0 0 1 0,-2.783 2.251,2.251 0 0 1 2.658,-0.173 1.494,1.494 0 0 1 0.61,0.945 c 0.015,0.08 -0.017,0.121 -0.1,0.121 h -0.714 a 0.121,0.121 0 0 1 -0.122,-0.1 0.72,0.72 0 0 0 -0.322,-0.387 1.06,1.06 0 0 0 -0.564,-0.147 1.04,1.04 0 0 0 -0.788,0.313 1.293,1.293 0 0 0 0,1.647 1.04,1.04 0 0 0 0.788,0.312 1.064,1.064 0 0 0 0.564,-0.147 0.72,0.72 0 0 0 0.322,-0.387 0.121,0.121 0 0 1 0.122,-0.1 h 0.714 c 0.08,0 0.113,0.039 0.1,0.12 a 1.491,1.491 0 0 1 -0.613,0.94 2.019,2.019 0 0 1 -1.206,0.354"
       transform="translate(-173.21,-43.538)"
       fill="#ababab"
       style="fill:#f1e31e;fill-opacity:1" />
    <path
       id="Trazado_886"
       data-name="Trazado 886"
       d="m 330.789,83.012 a 2.276,2.276 0 0 1 -2.913,0 2.028,2.028 0 0 1 0,-2.783 2.276,2.276 0 0 1 2.913,0 2.028,2.028 0 0 1 0,2.783 m -2.246,-0.571 a 1.167,1.167 0 0 0 1.58,0 1.27,1.27 0 0 0 0,-1.64 1.167,1.167 0 0 0 -1.58,0 1.27,1.27 0 0 0 0,1.64"
       transform="translate(-178.805,-43.538)"
       fill="#ababab"
       style="fill:#f1e31e;fill-opacity:1" />
    <path
       id="Trazado_887"
       data-name="Trazado 887"
       d="m 346.945,81.025 a 2.62,2.62 0 0 1 -3.474,0 2.325,2.325 0 0 1 -0.662,-1.726 v -2.881 a 0.1,0.1 0 0 1 0.111,-0.112 h 0.731 a 0.1,0.1 0 0 1 0.111,0.112 V 79.3 a 1.558,1.558 0 0 0 0.4,1.117 1.5,1.5 0 0 0 2.089,0 1.565,1.565 0 0 0 0.4,-1.117 v -2.882 a 0.1,0.1 0 0 1 0.113,-0.112 h 0.729 a 0.1,0.1 0 0 1 0.113,0.112 V 79.3 a 2.325,2.325 0 0 1 -0.662,1.726"
       transform="translate(-187.264,-41.683)"
       fill="#ababab"
       style="fill:#f1e31e;fill-opacity:1" />
    <path
       id="Trazado_888"
       data-name="Trazado 888"
       d="m 358.533,79.776 a 0.112,0.112 0 0 1 0.083,0.136 l -0.091,0.564 a 0.1,0.1 0 0 1 -0.135,0.09 2.43,2.43 0 0 0 -0.429,-0.037 1.038,1.038 0 0 0 -1.09,1.09 v 1.692 a 0.1,0.1 0 0 1 -0.113,0.113 h -0.69 a 0.1,0.1 0 0 1 -0.113,-0.113 v -2.527 c 0,-0.185 -0.107,-0.278 -0.315,-0.278 a 1.78,1.78 0 0 0 -0.211,0.023 c -0.091,0.01 -0.135,-0.021 -0.135,-0.09 v -0.527 a 0.127,0.127 0 0 1 0.089,-0.136 1.548,1.548 0 0 1 0.459,-0.075 0.832,0.832 0 0 1 0.879,0.542 1.621,1.621 0 0 1 1.25,-0.542 1.959,1.959 0 0 1 0.564,0.075"
       transform="translate(-194.083,-43.538)"
       fill="#ababab"
       style="fill:#f1e31e;fill-opacity:1" />
    <path
       id="Trazado_889"
       data-name="Trazado 889"
       d="m 366.581,77.484 a 1.988,1.988 0 0 1 1.432,0.538 1.984,1.984 0 0 1 0,2.761 1.987,1.987 0 0 1 -1.432,0.537 1.806,1.806 0 0 1 -1.054,-0.32 v 0.1 a 0.1,0.1 0 0 1 -0.113,0.113 h -0.7 A 0.1,0.1 0 0 1 364.601,81.1 v -5.34 a 0.1,0.1 0 0 1 0.113,-0.113 h 0.7 a 0.1,0.1 0 0 1 0.113,0.113 v 2.054 a 1.807,1.807 0 0 1 1.054,-0.324 m -0.009,3.084 a 1.022,1.022 0 0 0 0.779,-0.328 1.305,1.305 0 0 0 0,-1.677 1.022,1.022 0 0 0 -0.779,-0.328 0.974,0.974 0 0 0 -0.76,0.328 1.343,1.343 0 0 0 0,1.677 0.974,0.974 0 0 0 0.76,0.328"
       transform="translate(-199.169,-41.32)"
       fill="#ababab"
       style="fill:#f1e31e;fill-opacity:1" />
    <path
       id="Trazado_890"
       data-name="Trazado 890"
       d="m 379.885,83.312 a 0.123,0.123 0 0 1 -0.089,0.136 1.677,1.677 0 0 1 -0.511,0.09 0.875,0.875 0 0 1 -0.873,-0.467 1.822,1.822 0 0 1 -1.24,0.467 1.984,1.984 0 0 1 -1.434,-0.538 1.979,1.979 0 0 1 0,-2.761 1.985,1.985 0 0 1 1.432,-0.538 1.771,1.771 0 0 1 1.06,0.331 v -0.1 a 0.1,0.1 0 0 1 0.113,-0.113 h 0.692 a 0.1,0.1 0 0 1 0.113,0.113 v 2.527 a 0.279,0.279 0 0 0 0.072,0.2 0.249,0.249 0 0 0 0.191,0.075 1.562,1.562 0 0 0 0.279,-0.029 c 0.079,-0.015 0.124,0.014 0.135,0.09 z m -2.706,-0.526 a 0.978,0.978 0 0 0 0.76,-0.328 1.351,1.351 0 0 0 0,-1.677 0.978,0.978 0 0 0 -0.76,-0.328 1.016,1.016 0 0 0 -0.779,0.328 1.305,1.305 0 0 0 0,1.677 1.016,1.016 0 0 0 0.779,0.328"
       transform="translate(-204.946,-43.538)"
       fill="#ababab"
       style="fill:#f1e31e;fill-opacity:1" />
    <path
       id="Trazado_891"
       data-name="Trazado 891"
       d="m 389.632,79.7 a 1.587,1.587 0 0 1 1.193,0.47 1.707,1.707 0 0 1 0.455,1.237 v 1.9 a 0.1,0.1 0 0 1 -0.113,0.113 h -0.692 a 0.1,0.1 0 0 1 -0.113,-0.113 v -1.85 a 0.978,0.978 0 0 0 -0.255,-0.7 0.888,0.888 0 0 0 -0.671,-0.267 0.994,0.994 0 0 0 -0.705,0.252 0.869,0.869 0 0 0 -0.272,0.666 v 1.9 a 0.1,0.1 0 0 1 -0.113,0.113 h -0.69 a 0.1,0.1 0 0 1 -0.113,-0.113 v -2.523 c 0,-0.185 -0.107,-0.278 -0.316,-0.278 a 1.833,1.833 0 0 0 -0.211,0.023 c -0.092,0.01 -0.135,-0.02 -0.135,-0.09 v -0.527 a 0.127,0.127 0 0 1 0.089,-0.136 1.312,1.312 0 0 1 0.459,-0.075 0.87,0.87 0 0 1 0.858,0.475 1.869,1.869 0 0 1 1.345,-0.475"
       transform="translate(-211.339,-43.538)"
       fill="#ababab"
       style="fill:#f1e31e;fill-opacity:1" />
    <path
       id="Trazado_892"
       data-name="Trazado 892"
       d="m 402.11,83.012 a 2.276,2.276 0 0 1 -2.913,0 2.028,2.028 0 0 1 0,-2.783 2.276,2.276 0 0 1 2.913,0 2.028,2.028 0 0 1 0,2.783 m -2.246,-0.571 a 1.167,1.167 0 0 0 1.58,0 1.27,1.27 0 0 0 0,-1.64 1.167,1.167 0 0 0 -1.58,0 1.27,1.27 0 0 0 0,1.64"
       transform="translate(-217.765,-43.538)"
       fill="#ababab"
       style="fill:#f1e31e;fill-opacity:1" />
    <rect
       id="Rect치ngulo_774"
       data-name="Rect치ngulo 774"
       width="13.305"
       height="3.3150001"
       transform="translate(0.001,6.627)"
       fill="#ababab"
       x="0"
       y="0"
       style="fill:#f1e31e;fill-opacity:1" />
    <path
       id="Trazado_893"
       data-name="Trazado 893"
       d="m 0,0 h 15.883 a 9.928,9.928 0 0 0 -2,3.315 H 0 Z"
       fill="#ababab"
       style="fill:#f1e31e;fill-opacity:1" />
    <path
       id="Trazado_894"
       data-name="Trazado 894"
       d="M 59.714,0 V 3.265 H 43.736 a 3.9,3.9 0 0 0 -0.59,0.044 v 0.005 h -0.024 a 3.953,3.953 0 0 0 -3.341,3.9 V 39.765 H 36.515 V 6.626 A 6.671,6.671 0 0 1 43.146,0 Z"
       transform="translate(-19.947)"
       fill="#ababab"
       style="fill:#f1e31e;fill-opacity:1" />
    <path
       id="Trazado_895"
       data-name="Trazado 895"
       d="M 51.08,7.3 H 51.1 V 7.291 a 0.143,0.143 0 0 0 -0.024,0.005"
       transform="translate(-27.903,-3.983)"
       fill="#ababab"
       style="fill:#f1e31e;fill-opacity:1" />
    <path
       id="Trazado_896"
       data-name="Trazado 896"
       d="m 67.58,14.618 v 3.267 l -12.3,0.037 a 1.106,1.106 0 0 0 -1.1,1.105 v 28.725 h -3.264 v -29.52 a 3.613,3.613 0 0 1 3.612,-3.614 z"
       transform="translate(-27.814,-7.985)"
       fill="#ababab"
       style="fill:#f1e31e;fill-opacity:1" />
  </g>
</svg>
