<?xml version="1.0" encoding="UTF-8" standalone="no"?>
<!-- Generator: Adobe Illustrator 16.0.3, SVG Export Plug-In . SVG Version: 6.00 Build 0)  -->

<svg
   version="1.1"
   id="Capa_1"
   x="0px"
   y="0px"
   width="500"
   height="500"
   viewBox="0 0 499.99998 499.99999"
   enable-background="new 0 0 595.28 841.89"
   xml:space="preserve"
   sodipodi:docname="Logo SITEUR.svg"
   inkscape:version="1.1 (c68e22c387, 2021-05-23)"
   xmlns:inkscape="http://www.inkscape.org/namespaces/inkscape"
   xmlns:sodipodi="http://sodipodi.sourceforge.net/DTD/sodipodi-0.dtd"
   xmlns="http://www.w3.org/2000/svg"
   xmlns:svg="http://www.w3.org/2000/svg"><defs
   id="defs19" /><sodipodi:namedview
   id="namedview17"
   pagecolor="#ffffff"
   bordercolor="#666666"
   borderopacity="1.0"
   inkscape:pageshadow="2"
   inkscape:pageopacity="0.0"
   inkscape:pagecheckerboard="0"
   showgrid="false"
   fit-margin-top="0"
   fit-margin-left="0"
   fit-margin-right="0"
   fit-margin-bottom="0"
   inkscape:zoom="0.24706315"
   inkscape:cx="-892.48437"
   inkscape:cy="1042.2436"
   inkscape:window-width="1920"
   inkscape:window-height="1017"
   inkscape:window-x="1912"
   inkscape:window-y="-8"
   inkscape:window-maximized="1"
   inkscape:current-layer="Capa_1" />
<rect
   style="fill:#21345c;fill-opacity:1;fill-rule:evenodd;stroke:none;stroke-width:3.42037"
   id="rect3769"
   width="500"
   height="500"
   x="0"
   y="0"
   ry="54.012798" />
<path
   fill-rule="evenodd"
   clip-rule="evenodd"
   fill="#FFFFFF"
   d="m 249.73021,399.97533 c -7.7908,0 -14.7402,0.10593 -21.6794,-0.1212 -0.9811,-0.0316 -2.2792,-1.52874 -2.7565,-2.63787 -0.4996,-1.16006 -0.2212,-2.66843 -0.2222,-4.02505 0,-80.61205 -0.032,-161.22614 0.026,-241.83819 0.016,-22.20908 11.7738,-39.90933 32.2755,-47.83721 5.5627,-2.15104 11.8635,-3.30702 17.835,-3.34776 40.6087,-0.276014 81.2194,-0.13342 121.8311,-0.11407 0.829,0 1.6571,0.13953 2.8736,0.24851 0,7.96557 0,15.81707 0,24.29901 -2.1302,0 -4.1136,0 -6.0969,0 -37.3823,0.0102 -74.7645,-0.007 -112.1467,0.0407 -19.7379,0.0244 -31.9287,12.32774 -31.9328,32.21162 -0.02,78.5761 -0.01,157.15321 -0.01,235.72829 0,2.17447 0,4.34893 0,7.39318 z"
   id="path4-4"
   style="fill:#f1e31e;fill-opacity:1;stroke-width:1.01911" /><path
   fill-rule="evenodd"
   clip-rule="evenodd"
   fill="#FFFFFF"
   d="m 299.17671,399.63822 c -8.5361,0 -16.2605,0 -24.6468,0 0,-2.4627 0,-4.61883 0,-6.77496 0,-70.92219 0,-141.8454 0.02,-212.76656 0,-19.21372 10.7643,-29.96586 29.9382,-29.97707 29.5589,-0.0183 59.1188,-0.0102 88.6766,-0.0143 2.1619,0 4.3227,0 6.8353,0 0,8.32916 0,16.02891 0,24.52409 -4.0687,0 -7.9202,-0.005 -11.7708,10e-4 -25.4809,0.0428 -50.9629,0.0713 -76.4439,0.14055 -10.2574,0.0265 -12.609,2.40973 -12.609,12.61801 0,68.54708 -10e-4,137.09416 0,205.64124 0,2.00539 0,4.00977 0,6.60793 z"
   id="path6-5"
   style="fill:#f1e31e;fill-opacity:1;stroke-width:1.01911" /><path
   fill-rule="evenodd"
   clip-rule="evenodd"
   fill="#FFFFFF"
   d="m 100.47651,100.09879 c 39.7022,0 78.9087,0 117.7043,0 -4.2615,7.68854 -8.5045,15.45245 -12.9057,23.12572 -0.4498,0.78525 -1.8488,1.45949 -2.8073,1.45949 -33.8021,0.004 -67.605,-0.0794 -101.407,-0.16398 -0.1295,-0.001 -0.2579,-0.20777 -0.5832,-0.48887 0,-7.8128 0,-15.78957 0,-23.93236 z"
   id="path8-7"
   style="fill:#f1e31e;fill-opacity:1;stroke-width:1.01911" /><path
   fill-rule="evenodd"
   clip-rule="evenodd"
   fill="#FFFFFF"
   d="m 199.73281,175.04399 c -17.9736,0 -35.6181,0 -53.2624,-0.001 -13.2412,0 -26.4835,0.0194 -39.7247,-0.0102 -6.814802,-0.0153 -6.785102,-0.053 -6.7383,-6.62626 0.042,-5.88175 0.01,-11.76554 0.01,-17.99765 33.5021,0 66.3671,0 99.7172,0 -0.001,8.03483 -0.001,16.05438 -0.001,24.63511 z"
   id="path10-9"
   style="fill:#f1e31e;fill-opacity:1;stroke-width:1.01911" /></svg>
