<svg data-name="Grupo 614" width="483.252" height="120" xmlns="http://www.w3.org/2000/svg"><defs><clipPath id="a"><path data-name="Rectángulo 775" fill="#ababab" d="M0 0h184.897v40H0z"/></clipPath></defs><rect width="482.185" height="118.933" x=".533" y=".533" ry="16.382" fill="#21345c" fill-rule="evenodd" stroke="#21345c" stroke-width="1.067"/><g data-name="Grupo 613" transform="matrix(2.50546 0 0 2.5 10 10)" clip-path="url(#a)" fill="#f1e31e"><path data-name="Trazado 859" d="M60.894 29.775a13.837 13.837 0 01-7.768-2.068 7.9 7.9 0 01-3.7-5.476q-.1-.834.764-.834h5.007a1 1 0 01.938.625 3.427 3.427 0 001.687 1.877 6.31 6.31 0 003.076.7 4.691 4.691 0 002.468-.556 1.713 1.713 0 00.9-1.529 1.888 1.888 0 00-1.025-1.668 6.81 6.81 0 00-2.59-.852 30.2 30.2 0 01-3.354-.7 24.552 24.552 0 01-3.354-1.13 5.715 5.715 0 01-2.59-2.242 7.109 7.109 0 01-1.025-3.945 6.73 6.73 0 012.8-5.614 11.722 11.722 0 017.316-2.138 13.08 13.08 0 017.069 1.877 7.564 7.564 0 013.633 5.145.586.586 0 01-.122.608.868.868 0 01-.642.226h-5.039a1.156 1.156 0 01-1.008-.591q-.764-2.155-3.545-2.155a4.085 4.085 0 00-2.329.608 1.861 1.861 0 00-.9 1.616 1.994 1.994 0 001.025 1.738 6.614 6.614 0 002.573.9 34.118 34.118 0 013.337.713 25.537 25.537 0 013.337 1.112 5.715 5.715 0 012.573 2.172 6.718 6.718 0 011.025 3.824 6.665 6.665 0 01-2.886 5.615 12.551 12.551 0 01-7.647 2.138"/><path data-name="Trazado 860" d="M75.388 29.184q-.832 0-.833-.8v-3.858q0-.8.833-.8h3.06V10.309h-3.06q-.832 0-.833-.8V5.651q0-.8.833-.8h12.688q.836 0 .836.8V9.51q0 .8-.836.8h-3.058v13.417h3.058q.836 0 .836.8v3.858q0 .8-.836.8z"/><path data-name="Trazado 861" d="M106.988 4.851q.832 0 .833.8v3.858q0 .8-.833.8h-6.987v18.075q0 .8-.834.8H94.23a.706.706 0 01-.8-.8V10.309h-6.988q-.836 0-.836-.8V5.651q0-.8.836-.8z"/><path data-name="Trazado 862" d="M130.38 9.336q0 .764-.8.764h-11.749v4.415h9.871q.833 0 .834.764v3.615q0 .766-.834.765h-9.871v4.275h11.748c.533 0 .8.256.8.765v3.684a.708.708 0 01-.8.8h-17.483q-.836 0-.836-.8V5.651q0-.8.836-.8h17.483a.708.708 0 01.8.8z"/><path data-name="Trazado 863" d="M145.705 29.81q-5.561 0-8.69-3.042-3.129-3.042-3.128-8.464V5.651c0-.533.276-.8.833-.8h4.972q.832 0 .834.8v12.827a5.637 5.637 0 001.408 4.032 4.933 4.933 0 003.77 1.495 5 5 0 003.79-1.495 5.606 5.606 0 001.426-4.032V5.651a.706.706 0 01.8-.8h5.007q.832 0 .834.8v12.653q0 5.423-3.128 8.464-3.128 3.041-8.728 3.042"/><path data-name="Trazado 864" d="M184.638 28.246a.589.589 0 01.122.659c-.1.186-.328.279-.677.279h-5.909a1.1 1.1 0 01-.973-.521l-5.081-6.743h-3.683v6.465a.708.708 0 01-.8.8h-4.935q-.836 0-.836-.8V5.651q0-.8.836-.8h10.258a11.865 11.865 0 017.612 2.226 7.593 7.593 0 012.782 6.292q0 5.353-4.554 7.4zm-16.2-18.076v6.4h3.822a5.756 5.756 0 003.285-.818 2.7 2.7 0 001.2-2.38 2.734 2.734 0 00-1.164-2.364 5.3 5.3 0 00-3.145-.835z"/><path data-name="Trazado 865" d="M51.562 39.992a2.671 2.671 0 01-1.589-.451 1.689 1.689 0 01-.734-1.2c-.011-.079.026-.12.113-.12h.721a.116.116 0 01.122.105.956.956 0 00.471.636 1.786 1.786 0 00.951.236 1.374 1.374 0 00.77-.191.593.593 0 00.289-.515.55.55 0 00-.176-.426 1.06 1.06 0 00-.464-.233c-.19-.048-.4-.09-.627-.127a8.541 8.541 0 01-.686-.143 2.8 2.8 0 01-.627-.236 1.147 1.147 0 01-.463-.459 1.509 1.509 0 01-.176-.76 1.4 1.4 0 01.557-1.155 2.3 2.3 0 011.465-.44 2.551 2.551 0 011.482.41 1.606 1.606 0 01.707 1.094c.015.08-.02.121-.107.121h-.729a.122.122 0 01-.127-.1.913.913 0 00-.4-.553 1.368 1.368 0 00-.764-.2 1.351 1.351 0 00-.785.206.641.641 0 00-.3.553.588.588 0 00.237.492 1.3 1.3 0 00.59.245c.235.04.492.09.766.15a7.007 7.007 0 01.768.211 1.2 1.2 0 01.59.44 1.33 1.33 0 01.237.816 1.385 1.385 0 01-.574 1.154 2.436 2.436 0 01-1.517.441"/><path data-name="Trazado 866" d="M55.256 35.486a.576.576 0 01-.407-.153.5.5 0 010-.745.605.605 0 01.807 0 .492.492 0 010 .745.571.571 0 01-.4.153m-.346 4.4a.1.1 0 01-.113-.113V36.39a.1.1 0 01.113-.113h.692a.1.1 0 01.111.113v3.384a.1.1 0 01-.111.113z"/><path data-name="Trazado 867" d="M58.443 40a2.176 2.176 0 01-1.236-.317 1.228 1.228 0 01-.553-.879c-.011-.081.028-.121.113-.121l.631.007a.118.118 0 01.12.1q.167.505.925.5a1.067 1.067 0 00.527-.113.333.333 0 00.2-.293.338.338 0 00-.248-.32 2.4 2.4 0 00-.6-.147 7.698 7.698 0 01-.7-.12 1.181 1.181 0 01-.6-.32.9.9 0 01-.248-.672.972.972 0 01.435-.827 1.917 1.917 0 011.152-.317 2 2 0 011.112.294 1.107 1.107 0 01.527.775c.011.079-.028.12-.113.12h-.631c-.065 0-.107-.023-.12-.068a.6.6 0 00-.283-.328.967.967 0 00-.492-.124 1 1 0 00-.494.106.315.315 0 00-.183.279.348.348 0 00.176.308 1.014 1.014 0 00.435.142q.261.031.568.094a4.915 4.915 0 01.568.15.889.889 0 01.436.32.947.947 0 01.178.594 1.006 1.006 0 01-.444.85 1.938 1.938 0 01-1.167.323"/><path data-name="Trazado 868" d="M62.902 40a1.44 1.44 0 01-1.058-.4 1.415 1.415 0 01-.4-1.053v-1.541h-.753a.1.1 0 01-.113-.112v-.5a.1.1 0 01.113-.113h.753v-1a.1.1 0 01.111-.113h.692a.1.1 0 01.113.113v1h1.28a.1.1 0 01.111.113v.5a.1.1 0 01-.111.112h-1.28v1.512a.685.685 0 00.177.493.62.62 0 00.47.184 2.467 2.467 0 00.594-.068.1.1 0 01.135.09l.092.527a.126.126 0 01-.092.135 3.356 3.356 0 01-.834.121"/><path data-name="Trazado 869" d="M66.545 40a2.018 2.018 0 01-1.45-.526 1.835 1.835 0 01-.553-1.391 1.86 1.86 0 01.54-1.392 1.927 1.927 0 011.408-.527 1.864 1.864 0 011.373.519 1.846 1.846 0 01.522 1.369c0 .069 0 .171-.015.3a.117.117 0 01-.129.1h-2.774a1.085 1.085 0 00.4.594 1.13 1.13 0 00.7.218.89.89 0 00.714-.262.2.2 0 01.144-.069h.744a.108.108 0 01.089.038.07.07 0 010 .09 1.483 1.483 0 01-.657.685 2.159 2.159 0 01-1.055.255m-1.1-2.2h2.009a.941.941 0 00-.268-.651.909.909 0 00-.673-.251 1.086 1.086 0 00-.718.248.986.986 0 00-.35.654"/><path data-name="Trazado 870" d="M74.335 36.162a1.584 1.584 0 011.193.47 1.707 1.707 0 01.455 1.237v1.9a.1.1 0 01-.113.113h-.692a.1.1 0 01-.111-.113v-1.85a.979.979 0 00-.257-.7.886.886 0 00-.668-.267.74.74 0 00-.584.252.973.973 0 00-.222.666v1.9a.1.1 0 01-.113.113h-.692a.1.1 0 01-.113-.113v-1.85a1.044 1.044 0 00-.229-.7.769.769 0 00-.614-.267.868.868 0 00-.647.252.911.911 0 00-.248.666v1.9a.1.1 0 01-.113.113h-.69a.1.1 0 01-.113-.113v-2.524c0-.185-.107-.278-.316-.278a1.843 1.843 0 00-.211.023c-.092.01-.135-.02-.135-.09v-.527a.127.127 0 01.089-.136 1.312 1.312 0 01.459-.075.856.856 0 01.849.459 1.751 1.751 0 011.271-.459 1.467 1.467 0 011.2.549 1.728 1.728 0 011.36-.549"/><path data-name="Trazado 871" d="M81.631 39.774a.123.123 0 01-.089.136 1.676 1.676 0 01-.511.09.875.875 0 01-.873-.467 1.823 1.823 0 01-1.241.467 1.984 1.984 0 01-1.433-.538 1.979 1.979 0 010-2.761 1.985 1.985 0 011.432-.538 1.77 1.77 0 011.06.331v-.1a.1.1 0 01.113-.113h.692a.1.1 0 01.113.113v2.527a.279.279 0 00.072.2.248.248 0 00.191.075 1.561 1.561 0 00.279-.029c.079-.015.124.014.135.09zm-2.706-.526a.978.978 0 00.76-.328 1.351 1.351 0 000-1.677.978.978 0 00-.76-.328 1.016 1.016 0 00-.779.328 1.305 1.305 0 000 1.677 1.016 1.016 0 00.779.328"/><path data-name="Trazado 872" d="M89.158 39.774a.123.123 0 01-.089.136 1.676 1.676 0 01-.511.09.875.875 0 01-.873-.467 1.823 1.823 0 01-1.241.467 1.984 1.984 0 01-1.432-.537 1.979 1.979 0 010-2.761 1.985 1.985 0 011.432-.538 1.807 1.807 0 011.054.324v-2.054a.1.1 0 01.113-.113h.7a.1.1 0 01.113.113v4.483a.279.279 0 00.072.2.249.249 0 00.191.075 1.562 1.562 0 00.279-.029c.078-.015.124.014.135.09zm-2.706-.526a.978.978 0 00.76-.328 1.351 1.351 0 000-1.677.978.978 0 00-.76-.328 1.016 1.016 0 00-.779.328 1.305 1.305 0 000 1.677 1.016 1.016 0 00.779.328"/><path data-name="Trazado 873" d="M91.875 40a2.018 2.018 0 01-1.45-.526 1.835 1.835 0 01-.553-1.391 1.86 1.86 0 01.54-1.392 1.927 1.927 0 011.408-.527 1.789 1.789 0 011.9 1.888c0 .069 0 .171-.015.3a.117.117 0 01-.129.1h-2.775a1.085 1.085 0 00.4.594 1.131 1.131 0 00.7.218.89.89 0 00.714-.262.2.2 0 01.144-.069h.744a.108.108 0 01.089.038.07.07 0 010 .09 1.485 1.485 0 01-.657.685 2.159 2.159 0 01-1.055.255m-1.1-2.2h2.009a.941.941 0 00-.268-.651.909.909 0 00-.673-.251 1.086 1.086 0 00-.718.248.986.986 0 00-.35.654"/><path data-name="Trazado 874" d="M101.064 34.623a.1.1 0 01.111.112v.609a.1.1 0 01-.111.113h-1.776v4.316a.1.1 0 01-.113.113h-.729a.1.1 0 01-.113-.113v-4.315h-1.767a.1.1 0 01-.111-.113v-.609a.1.1 0 01.111-.112z"/><path data-name="Trazado 875" d="M104.651 36.238a.112.112 0 01.083.136l-.091.564a.1.1 0 01-.135.09 2.43 2.43 0 00-.429-.037 1.038 1.038 0 00-1.09 1.09v1.692a.1.1 0 01-.113.113h-.69a.1.1 0 01-.113-.113v-2.527c0-.185-.107-.278-.315-.278a1.78 1.78 0 00-.211.023c-.091.01-.135-.021-.135-.09v-.527a.127.127 0 01.089-.136 1.548 1.548 0 01.459-.075.832.832 0 01.879.542 1.621 1.621 0 011.25-.542 1.959 1.959 0 01.564.075"/><path data-name="Trazado 876" d="M107.299 40a2.018 2.018 0 01-1.45-.526 1.835 1.835 0 01-.553-1.391 1.86 1.86 0 01.54-1.392 1.927 1.927 0 011.408-.527 1.864 1.864 0 011.373.519 1.845 1.845 0 01.522 1.369c0 .069 0 .171-.015.3a.117.117 0 01-.129.1h-2.775a1.085 1.085 0 00.4.594 1.131 1.131 0 00.7.218.89.89 0 00.714-.262.2.2 0 01.144-.069h.744a.108.108 0 01.089.038.07.07 0 010 .09 1.485 1.485 0 01-.657.685 2.159 2.159 0 01-1.055.255m-1.1-2.2h2.009a.941.941 0 00-.268-.651.909.909 0 00-.673-.251 1.086 1.086 0 00-.718.248.986.986 0 00-.35.654"/><path data-name="Trazado 877" d="M112.607 36.162a1.587 1.587 0 011.193.47 1.707 1.707 0 01.455 1.237v1.9a.1.1 0 01-.113.113h-.692a.1.1 0 01-.113-.113v-1.85a.977.977 0 00-.255-.7.887.887 0 00-.671-.267.994.994 0 00-.705.252.869.869 0 00-.272.666v1.9a.1.1 0 01-.113.113h-.69a.1.1 0 01-.113-.113v-2.523c0-.185-.107-.278-.316-.278a1.832 1.832 0 00-.211.023c-.092.01-.135-.02-.135-.09v-.527a.127.127 0 01.089-.136 1.312 1.312 0 01.459-.075.87.87 0 01.858.475 1.868 1.868 0 011.345-.475"/><path data-name="Trazado 878" d="M121.457 35.344a.1.1 0 01-.113.113h-2.865v1.414h2.549a.1.1 0 01.113.113v.608a.1.1 0 01-.113.113h-2.549v1.346h2.865a.1.1 0 01.113.113v.608a.1.1 0 01-.113.113h-3.707a.1.1 0 01-.113-.113v-5.037a.1.1 0 01.113-.112h3.707a.1.1 0 01.113.112z"/><path data-name="Trazado 879" d="M123.528 40a1.2 1.2 0 01-.764-.23.733.733 0 01-.289-.605v-4.731a.1.1 0 01.113-.113h.692a.1.1 0 01.111.113v4.483a.283.283 0 00.072.2.253.253 0 00.191.075 1.542 1.542 0 00.279-.029c.081-.015.127.014.135.09l.061.518a.115.115 0 01-.089.136 1.688 1.688 0 01-.511.09"/><path data-name="Trazado 880" d="M126.845 40a2.019 2.019 0 01-1.446-.528 1.835 1.835 0 01-.553-1.391 1.86 1.86 0 01.54-1.392 1.926 1.926 0 011.408-.526 1.789 1.789 0 011.9 1.888c0 .07 0 .171-.015.3a.117.117 0 01-.128.1h-2.775a1.088 1.088 0 00.4.594 1.133 1.133 0 00.7.217.889.889 0 00.714-.262.2.2 0 01.144-.069h.744a.108.108 0 01.089.038.07.07 0 010 .09 1.481 1.481 0 01-.657.685 2.159 2.159 0 01-1.055.256m-1.1-2.2h2.009a.942.942 0 00-.268-.651.91.91 0 00-.672-.251 1.084 1.084 0 00-.719.248.984.984 0 00-.35.654m.7-2.166a.093.093 0 01-.085-.041.089.089 0 010-.095l.5-.925a.141.141 0 01.137-.083h.766c.1 0 .124.046.068.136l-.647.939a.159.159 0 01-.143.069z"/><path data-name="Trazado 881" d="M131.516 40a2.011 2.011 0 01-1.452-.527 2.034 2.034 0 010-2.783 2.251 2.251 0 012.658-.173 1.5 1.5 0 01.614.941c.015.08-.018.121-.1.121h-.714a.12.12 0 01-.122-.1.723.723 0 00-.323-.387 1.059 1.059 0 00-.564-.147 1.04 1.04 0 00-.788.313 1.294 1.294 0 000 1.647 1.04 1.04 0 00.788.312 1.063 1.063 0 00.564-.147.723.723 0 00.323-.387.12.12 0 01.122-.1h.714c.08 0 .113.039.1.12a1.494 1.494 0 01-.614.94 2.019 2.019 0 01-1.206.354"/><path data-name="Trazado 882" d="M136.187 40a1.44 1.44 0 01-1.058-.4 1.415 1.415 0 01-.4-1.053v-1.541h-.753a.1.1 0 01-.113-.112v-.5a.1.1 0 01.113-.113h.753v-1a.1.1 0 01.11-.115h.692a.1.1 0 01.113.113v1h1.28a.1.1 0 01.111.113v.5a.1.1 0 01-.111.112h-1.28v1.512a.685.685 0 00.177.493.62.62 0 00.47.184 2.466 2.466 0 00.594-.068.1.1 0 01.135.09l.092.527a.126.126 0 01-.092.135 3.355 3.355 0 01-.833.121"/><path data-name="Trazado 883" d="M140.957 36.238a.111.111 0 01.083.136l-.091.564a.1.1 0 01-.135.09 2.43 2.43 0 00-.429-.037 1.038 1.038 0 00-1.09 1.09v1.692a.1.1 0 01-.113.113h-.69a.1.1 0 01-.113-.113v-2.527c0-.185-.107-.278-.315-.278a1.78 1.78 0 00-.211.023c-.091.01-.135-.021-.135-.09v-.527a.127.127 0 01.089-.136 1.548 1.548 0 01.459-.075.832.832 0 01.879.542 1.621 1.621 0 011.25-.542 1.959 1.959 0 01.564.075"/><path data-name="Trazado 884" d="M142.4 35.486a.576.576 0 01-.407-.153.5.5 0 010-.745.605.605 0 01.807 0 .492.492 0 010 .745.571.571 0 01-.4.153m-.346 4.4a.1.1 0 01-.113-.113V36.39a.1.1 0 01.113-.113h.692a.1.1 0 01.111.113v3.384a.1.1 0 01-.111.113z"/><path data-name="Trazado 885" d="M145.874 40a2.011 2.011 0 01-1.452-.527 2.034 2.034 0 010-2.783 2.251 2.251 0 012.658-.173 1.494 1.494 0 01.61.945c.015.08-.017.121-.1.121h-.714a.121.121 0 01-.122-.1.72.72 0 00-.322-.387 1.06 1.06 0 00-.564-.147 1.04 1.04 0 00-.788.313 1.293 1.293 0 000 1.647 1.04 1.04 0 00.788.312 1.064 1.064 0 00.564-.147.72.72 0 00.322-.387.121.121 0 01.122-.1h.714c.08 0 .113.039.1.12a1.491 1.491 0 01-.613.94 2.019 2.019 0 01-1.206.354"/><path data-name="Trazado 886" d="M151.984 39.474a2.276 2.276 0 01-2.913 0 2.028 2.028 0 010-2.783 2.276 2.276 0 012.913 0 2.028 2.028 0 010 2.783m-2.246-.571a1.167 1.167 0 001.58 0 1.27 1.27 0 000-1.64 1.167 1.167 0 00-1.58 0 1.27 1.27 0 000 1.64"/><path data-name="Trazado 887" d="M159.681 39.342a2.62 2.62 0 01-3.474 0 2.325 2.325 0 01-.662-1.726v-2.881a.1.1 0 01.111-.112h.731a.1.1 0 01.111.112v2.882a1.558 1.558 0 00.4 1.117 1.5 1.5 0 002.089 0 1.565 1.565 0 00.4-1.117v-2.882a.1.1 0 01.113-.112h.729a.1.1 0 01.113.112v2.882a2.325 2.325 0 01-.662 1.726"/><path data-name="Trazado 888" d="M164.45 36.238a.112.112 0 01.083.136l-.091.564a.1.1 0 01-.135.09 2.43 2.43 0 00-.429-.037 1.038 1.038 0 00-1.09 1.09v1.692a.1.1 0 01-.113.113h-.69a.1.1 0 01-.113-.113v-2.527c0-.185-.107-.278-.315-.278a1.78 1.78 0 00-.211.023c-.091.01-.135-.021-.135-.09v-.527a.127.127 0 01.089-.136 1.548 1.548 0 01.459-.075.832.832 0 01.879.542 1.621 1.621 0 011.25-.542 1.959 1.959 0 01.564.075"/><path data-name="Trazado 889" d="M167.412 36.164a1.988 1.988 0 011.432.538 1.984 1.984 0 010 2.761 1.987 1.987 0 01-1.432.537 1.806 1.806 0 01-1.054-.32v.1a.1.1 0 01-.113.113h-.7a.1.1 0 01-.113-.113v-5.34a.1.1 0 01.113-.113h.7a.1.1 0 01.113.113v2.054a1.807 1.807 0 011.054-.324m-.009 3.084a1.022 1.022 0 00.779-.328 1.305 1.305 0 000-1.677 1.022 1.022 0 00-.779-.328.974.974 0 00-.76.328 1.343 1.343 0 000 1.677.974.974 0 00.76.328"/><path data-name="Trazado 890" d="M174.939 39.774a.123.123 0 01-.089.136 1.677 1.677 0 01-.511.09.875.875 0 01-.873-.467 1.822 1.822 0 01-1.24.467 1.984 1.984 0 01-1.434-.538 1.979 1.979 0 010-2.761 1.985 1.985 0 011.432-.538 1.771 1.771 0 011.06.331v-.1a.1.1 0 01.113-.113h.692a.1.1 0 01.113.113v2.527a.279.279 0 00.072.2.249.249 0 00.191.075 1.562 1.562 0 00.279-.029c.079-.015.124.014.135.09zm-2.706-.526a.978.978 0 00.76-.328 1.351 1.351 0 000-1.677.978.978 0 00-.76-.328 1.016 1.016 0 00-.779.328 1.305 1.305 0 000 1.677 1.016 1.016 0 00.779.328"/><path data-name="Trazado 891" d="M178.293 36.162a1.587 1.587 0 011.193.47 1.707 1.707 0 01.455 1.237v1.9a.1.1 0 01-.113.113h-.692a.1.1 0 01-.113-.113v-1.85a.978.978 0 00-.255-.7.888.888 0 00-.671-.267.994.994 0 00-.705.252.869.869 0 00-.272.666v1.9a.1.1 0 01-.113.113h-.69a.1.1 0 01-.113-.113v-2.523c0-.185-.107-.278-.316-.278a1.833 1.833 0 00-.211.023c-.092.01-.135-.02-.135-.09v-.527a.127.127 0 01.089-.136 1.312 1.312 0 01.459-.075.87.87 0 01.858.475 1.869 1.869 0 011.345-.475"/><path data-name="Trazado 892" d="M184.345 39.474a2.276 2.276 0 01-2.913 0 2.028 2.028 0 010-2.783 2.276 2.276 0 012.913 0 2.028 2.028 0 010 2.783m-2.246-.571a1.167 1.167 0 001.58 0 1.27 1.27 0 000-1.64 1.167 1.167 0 00-1.58 0 1.27 1.27 0 000 1.64"/><path data-name="Rectángulo 774" d="M.001 6.627h13.305v3.315H.001z"/><path data-name="Trazado 893" d="M0 0h15.883a9.928 9.928 0 00-2 3.315H0z"/><path data-name="Trazado 894" d="M39.767 0v3.265H23.789a3.9 3.9 0 00-.59.044v.005h-.024a3.953 3.953 0 00-3.341 3.9v32.551h-3.266V6.626A6.671 6.671 0 0123.199 0z"/><path data-name="Trazado 895" d="M23.177 3.317h.02v-.009a.143.143 0 00-.024.005"/><path data-name="Trazado 896" d="M39.766 6.633V9.9l-12.3.037a1.106 1.106 0 00-1.1 1.105v28.725h-3.264v-29.52a3.613 3.613 0 013.612-3.614z"/></g></svg>