<svg width="500" height="500" xmlns="http://www.w3.org/2000/svg"><rect width="500" height="500" ry="54.013" fill="#21345c" fill-rule="evenodd"/><path fill-rule="evenodd" clip-rule="evenodd" fill="#f1e31e" d="M249.73 399.975c-7.79 0-14.74.106-21.68-.12-.98-.032-2.278-1.53-2.756-2.639-.5-1.16-.22-2.668-.222-4.025 0-80.612-.032-161.226.026-241.838.016-22.21 11.774-39.91 32.276-47.837 5.562-2.151 11.863-3.307 17.835-3.348 40.608-.276 81.219-.133 121.83-.114.83 0 1.658.14 2.874.248v24.3h-6.097c-37.382.01-74.764-.008-112.146.04-19.738.025-31.929 12.328-31.933 32.212-.02 78.576-.01 157.153-.01 235.728v7.393z"/><path fill-rule="evenodd" clip-rule="evenodd" fill="#f1e31e" d="M299.177 399.638H274.53v-6.775c0-70.922 0-141.845.02-212.766 0-19.214 10.764-29.966 29.938-29.977 29.559-.019 59.119-.01 88.677-.015H400v24.524c-4.069 0-7.92-.005-11.77.001-25.482.043-50.964.072-76.445.141-10.257.026-12.609 2.41-12.609 12.618v212.249zm-198.7-299.539H218.18c-4.262 7.688-8.505 15.452-12.906 23.126-.45.785-1.849 1.459-2.807 1.459-33.802.004-67.605-.08-101.407-.164-.13-.001-.258-.208-.583-.489V100.1zm99.256 74.945l-53.263-.001c-13.24 0-26.483.02-39.724-.01-6.815-.016-6.785-.053-6.739-6.626.042-5.882.01-11.766.01-17.998h99.718l-.001 24.635z"/></svg>